<?xml version="1.0" encoding="UTF-8" standalone="no"?> <!-- Created with Vectornator for iOS (http://vectornator.io/) --><!DOCTYPE svg PUBLIC "-//W3C//DTD SVG 1.1//EN" "http://www.w3.org/Graphics/SVG/1.1/DTD/svg11.dtd">
<svg height="100%" style="fill-rule:evenodd;clip-rule:evenodd;stroke-linecap:round;stroke-linejoin:round;" xmlns:xlink="http://www.w3.org/1999/xlink" xmlns="http://www.w3.org/2000/svg" xml:space="preserve" width="100%" xmlns:vectornator="http://vectornator.io" version="1.1" viewBox="0 0 1024 1024">
<metadata>
<vectornator:setting key="DimensionsVisible" value="1"/>
<vectornator:setting key="PencilOnly" value="0"/>
<vectornator:setting key="SnapToPoints" value="0"/>
<vectornator:setting key="OutlineMode" value="0"/>
<vectornator:setting key="CMYKEnabledKey" value="0"/>
<vectornator:setting key="RulersVisible" value="1"/>
<vectornator:setting key="SnapToEdges" value="0"/>
<vectornator:setting key="GuidesVisible" value="1"/>
<vectornator:setting key="DisplayWhiteBackground" value="0"/>
<vectornator:setting key="doHistoryDisabled" value="0"/>
<vectornator:setting key="SnapToGuides" value="1"/>
<vectornator:setting key="TimeLapseWatermarkDisabled" value="0"/>
<vectornator:setting key="Units" value="Pixels"/>
<vectornator:setting key="DynamicGuides" value="0"/>
<vectornator:setting key="IsolateActiveLayer" value="0"/>
<vectornator:setting key="SnapToGrid" value="0"/>
</metadata>
<defs/>
<g id="Layer 1" vectornator:layerName="Layer 1">
<path stroke="#000000" vectornator:shadowColor="#000000" vectornator:shadowOffset="10" stroke-width="4" fill="#aa0000" stroke-linecap="round" vectornator:shadowAngle="0.647261" stroke-linejoin="round" opacity="1" vectornator:shadowRadius="10" d="M977.354+378.992C967.551+347.42+992.632+447.395+994.191+487.843C995.37+518.444+996.522+547.726+990.903+577.83C985.269+608.022+982.18+633.193+971.028+661.81C959.897+690.375+937.964+743.192+922.429+769.622C912.092+787.208+897.475+808.725+883.782+823.846C863.243+846.526+905.231+784.769+923.884+750.683C942.676+716.345+958.451+674.707+969.125+637.047C978.921+602.489+980.853+570.322+982.387+534.435C983.734+502.916+975.958+465.317+969.942+434.349C963.504+401.205+960.516+429.296+968.216+468.358C972.14+488.267+972.219+506.16+971.31+526.432C969.962+556.518+966.395+586.174+960.006+615.605C953.633+644.961+944.57+677.435+932.525+704.955C920.424+732.603+906.657+758.856+889.378+783.601C871.905+808.625+851.949+832.114+829.88+853.197C807.368+874.702+782.602+894.065+756.303+910.726C729.549+927.674+805.345+844.515+822.453+824.293C843.919+798.918+863.115+771.454+879.677+742.637C892.84+719.732+909.968+688.964+917.71+663.706C926.709+634.347+932.698+609.57+935.3+578.973C938.033+546.837+940.264+508.029+935.713+476.1C931.335+445.381+922.613+412.988+912.328+383.713C905.586+364.522+894.318+344.61+883.356+327.476C867.049+301.988+851.245+279.681+829.556+258.583C800.541+230.36+837.48+292.996+854.081+320.602C874.126+353.936+880.979+366.346+894.122+403.008C894.927+405.254+903.14+431.718+903.938+433.964C910.373+452.076+912.626+471.523+914.5+490.653C921.157+558.627+904.312+630.387+879.6+693.173C873.088+709.718+864.655+725.671+854.349+740.16C844.283+754.312+830.765+765.659+818.973+778.408C831.304+758.5+845.507+739.637+855.966+718.686C897.217+636.057+906.697+539.768+885.043+450.423C876.164+413.788+860.906+377.971+839.626+346.856C825.271+325.868+809.982+305.279+792.174+287.128C774.811+269.431+755.414+253.543+734.703+239.916C639.462+177.247+565.719+169.469+460.191+210.527C441.896+217.645+377.79+223.969+361.379+234.741C344.145+246.053+328.254+259.622+314.1+274.61C290.443+299.659+266.276+324.949+248.382+354.393C234.069+377.943+255.541+412.027+249.922+439.006C243.011+472.192+208.448+499.189+211.189+532.976C213.921+566.656+223.379+599.774+234.934+631.527C242.948+653.551+224.645+560.467+237.763+579.888C247.979+595.011+290.603+723.031+304.628+734.708C331.657+757.21+343.608+791.747+374.631+808.315C395.931+819.691+397.404+811.792+419.642+821.205C439.98+829.814+448.004+832.052+466.198+844.57C481.939+855.399+479.566+858.687+491.415+873.675C499.13+883.435+505.935+886.37+505.904+898.811C505.886+906.368+536.958+916.671+494.869+935.802C489.701+938.151+460.185+938.189+443.172+930.823C428.55+924.492+406.781+921.955+402.078+924.661C382.87+935.714+428.146+974.158+425.975+976.587C412.745+991.388+395.381+957.723+377.728+966.805C358.101+976.902+354.24+937.561+332.578+941.793C314.05+945.413+330.609+960.733+312.162+956.719C278.208+949.332+353.225+1008.17+321.739+993.473C299.95+983.299+254.025+955.383+235.001+940.672C210.04+921.37+186.472+900.088+164.895+877.063C143.55+854.284+124.112+829.604+106.665+803.719C90.7382+780.09+76.7114+750.305+65.5904+724.07C53.14+694.698+45.9318+663.661+38.6703+632.597C25.7839+577.47+20.1016+524.256+27.5414+468.134C31.0995+441.295+56.018+296.209+64.0575+270.356C74.2872+237.459+66.9571+323.47+82.1431+292.547C93.3041+269.819+106.973+248.167+122.677+228.306C165.591+174.033+195.621+151.401+254.93+115.767C279.364+101.086+329.001+63.9503+356.051+54.9571C389.169+43.9467+423.592+36.6699+458.138+31.7129C485.407+27.8+513.178+27.8622+540.72+28.4591C548.559+28.629+601.509+33.3698+618.992+37.9511C662.642+49.3893+727.105+70.3065+767.557+89.9285C769.061+90.6584+743.434+91.6509+744.947+92.3759C772.135+105.396+798.85+118.709+822.116+137.877C850.193+161.008+881.043+181.193+903.556+209.767C928.628+241.59+949.229+277.106+966.389+313.806C981.102+345.274+990.475+379.147+998.547+412.935C1004.61+438.291+986.701+409.099+977.354+378.992Z" vectornator:shadowOpacity="1"/>
</g>
</svg>
